<svg xmlns="http://www.w3.org/2000/svg" xmlns:xlink="http://www.w3.org/1999/xlink" contentStyleType="text/css" height="337px" preserveAspectRatio="none" style="width:1247px;height:337px;background:#FFFFFF;" version="1.1" viewBox="0 0 1247 337" width="1247px" zoomAndPan="magnify"><defs/><g><!--class user--><g id="elem_user"><rect codeLine="6" fill="#F1F1F1" height="140.0781" id="user" rx="2.5" ry="2.5" style="stroke:#181818;stroke-width:0.5;" width="276.9951" x="224.8" y="190.78"/><text fill="#000000" font-family="sans-serif" font-size="14" lengthAdjust="spacing" textLength="30.5361" x="348.0295" y="208.7751">user</text><line style="stroke:#181818;stroke-width:0.5;" x1="225.8" x2="500.7951" y1="217.0769" y2="217.0769"/><text fill="#000000" font-family="sans-serif" font-size="14" lengthAdjust="spacing" textLength="160.8223" x="230.8" y="234.072">user_id: CHAR(36) [PK]</text><line style="stroke:#181818;stroke-width:1.0;" x1="225.8" x2="500.7951" y1="241.3738" y2="241.3738"/><text fill="#000000" font-family="sans-serif" font-size="14" lengthAdjust="spacing" textLength="264.9951" x="230.8" y="258.3689">username: TEXT [NOT NULL, UNIQUE]</text><text fill="#000000" font-family="sans-serif" font-size="14" lengthAdjust="spacing" textLength="233.3652" x="230.8" y="274.6657">email: TEXT [NOT NULL, UNIQUE]</text><text fill="#000000" font-family="sans-serif" font-size="14" lengthAdjust="spacing" textLength="197.6064" x="230.8" y="290.9626">password: TEXT [NOT NULL]</text><text fill="#000000" font-family="sans-serif" font-size="14" lengthAdjust="spacing" textLength="118.7676" x="230.8" y="307.2595">first_name: TEXT</text><text fill="#000000" font-family="sans-serif" font-size="14" lengthAdjust="spacing" textLength="116.6621" x="230.8" y="323.5564">last_name: TEXT</text></g><g id="elem_GMN3"><path d="M536.6,248.25 L536.6,256.82 L502.11,260.82 L536.6,264.82 L536.6,273.3828 A0,0 0 0 0 536.6,273.3828 L741.9994,273.3828 A0,0 0 0 0 741.9994,273.3828 L741.9994,258.25 L731.9994,248.25 L536.6,248.25 A0,0 0 0 0 536.6,248.25 " fill="#FEFFDD" style="stroke:#181818;stroke-width:0.5;"/><path d="M731.9994,248.25 L731.9994,258.25 L741.9994,258.25 L731.9994,248.25 " fill="#FEFFDD" style="stroke:#181818;stroke-width:0.5;"/><text fill="#000000" font-family="sans-serif" font-size="13" font-weight="bold" lengthAdjust="spacing" textLength="40.041" x="542.6" y="265.3169">Note:</text><text fill="#000000" font-family="sans-serif" font-size="13" lengthAdjust="spacing" textLength="140.2261" x="586.7733" y="265.3169">This is the user table.</text></g><!--class role--><g id="elem_role"><rect codeLine="20" fill="#F1F1F1" height="74.8906" id="role" rx="2.5" ry="2.5" style="stroke:#181818;stroke-width:0.5;" width="182.5977" x="7" y="223.38"/><text fill="#000000" font-family="sans-serif" font-size="14" lengthAdjust="spacing" textLength="26.8242" x="84.8867" y="241.3751">role</text><line style="stroke:#181818;stroke-width:0.5;" x1="8" x2="188.5977" y1="249.6769" y2="249.6769"/><text fill="#000000" font-family="sans-serif" font-size="14" lengthAdjust="spacing" textLength="157.1104" x="13" y="266.672">role_id: CHAR(36) [PK]</text><line style="stroke:#181818;stroke-width:1.0;" x1="8" x2="188.5977" y1="273.9738" y2="273.9738"/><text fill="#000000" font-family="sans-serif" font-size="14" lengthAdjust="spacing" textLength="170.5977" x="13" y="290.9689">name: TEXT [NOT NULL]</text></g><!--class user_role--><g id="elem_user_role"><rect codeLine="27" fill="#F1F1F1" height="91.1875" id="user_role" rx="2.5" ry="2.5" style="stroke:#181818;stroke-width:0.5;" width="283.4141" x="89.59" y="23.3"/><text fill="#000000" font-family="sans-serif" font-size="14" lengthAdjust="spacing" textLength="64.3604" x="199.1169" y="41.2951">user_role</text><line style="stroke:#181818;stroke-width:0.5;" x1="90.59" x2="372.0041" y1="49.5969" y2="49.5969"/><text fill="#000000" font-family="sans-serif" font-size="14" lengthAdjust="spacing" textLength="194.6465" x="95.59" y="66.592">user_role_id: CHAR(36) [PK]</text><line style="stroke:#181818;stroke-width:1.0;" x1="90.59" x2="372.0041" y1="73.8938" y2="73.8938"/><text fill="#000000" font-family="sans-serif" font-size="14" lengthAdjust="spacing" textLength="271.4141" x="95.59" y="90.8889">user_id: CHAR(36) [FK -&gt; user.user_id]</text><text fill="#000000" font-family="sans-serif" font-size="14" lengthAdjust="spacing" textLength="260.2783" x="95.59" y="107.1857">role_id: CHAR(36) [FK -&gt; role.role_id]</text></g><!--class problem--><g id="elem_problem"><rect codeLine="35" fill="#F1F1F1" height="107.4844" id="problem" rx="2.5" ry="2.5" style="stroke:#181818;stroke-width:0.5;" width="220.7354" x="776.93" y="207.08"/><text fill="#000000" font-family="sans-serif" font-size="14" lengthAdjust="spacing" textLength="58.2354" x="858.18" y="225.0751">problem</text><line style="stroke:#181818;stroke-width:0.5;" x1="777.93" x2="996.6654" y1="233.3769" y2="233.3769"/><text fill="#000000" font-family="sans-serif" font-size="14" lengthAdjust="spacing" textLength="188.5215" x="782.93" y="250.372">problem_id: CHAR(36) [PK]</text><line style="stroke:#181818;stroke-width:1.0;" x1="777.93" x2="996.6654" y1="257.6738" y2="257.6738"/><text fill="#000000" font-family="sans-serif" font-size="14" lengthAdjust="spacing" textLength="158.2656" x="782.93" y="274.6689">title: TEXT [NOT NULL]</text><text fill="#000000" font-family="sans-serif" font-size="14" lengthAdjust="spacing" textLength="208.7354" x="782.93" y="290.9657">description: TEXT [NOT NULL]</text><text fill="#000000" font-family="sans-serif" font-size="14" lengthAdjust="spacing" textLength="191.6523" x="782.93" y="307.2626">difficulty: TEXT [NOT NULL]</text></g><!--class solved_problem--><g id="elem_solved_problem"><rect codeLine="44" fill="#F1F1F1" height="123.7813" id="solved_problem" rx="2.5" ry="2.5" style="stroke:#181818;stroke-width:0.5;" width="387.3477" x="693.62" y="7"/><text fill="#000000" font-family="sans-serif" font-size="14" lengthAdjust="spacing" textLength="110.7695" x="831.9091" y="24.9951">solved_problem</text><line style="stroke:#181818;stroke-width:0.5;" x1="694.62" x2="1079.9677" y1="33.2969" y2="33.2969"/><text fill="#000000" font-family="sans-serif" font-size="14" lengthAdjust="spacing" textLength="241.0557" x="699.62" y="50.292">solved_problem_id: CHAR(36) [PK]</text><line style="stroke:#181818;stroke-width:1.0;" x1="694.62" x2="1079.9677" y1="57.5938" y2="57.5938"/><text fill="#000000" font-family="sans-serif" font-size="14" lengthAdjust="spacing" textLength="271.4141" x="699.62" y="74.5889">user_id: CHAR(36) [FK -&gt; user.user_id]</text><text fill="#000000" font-family="sans-serif" font-size="14" lengthAdjust="spacing" textLength="354.5117" x="699.62" y="90.8857">problem_id: CHAR(36) [FK -&gt; problem.problem_id]</text><text fill="#000000" font-family="sans-serif" font-size="14" lengthAdjust="spacing" textLength="375.3477" x="699.62" y="107.1826">language_id: CHAR(36) [FK -&gt; language.language_id]</text><text fill="#000000" font-family="sans-serif" font-size="14" lengthAdjust="spacing" textLength="186.334" x="699.62" y="123.4795">solution: TEXT [NOT NULL]</text></g><!--class language--><g id="elem_language"><rect codeLine="54" fill="#F1F1F1" height="74.8906" id="language" rx="2.5" ry="2.5" style="stroke:#181818;stroke-width:0.5;" width="207.4668" x="1032.57" y="223.38"/><text fill="#000000" font-family="sans-serif" font-size="14" lengthAdjust="spacing" textLength="65.1807" x="1103.7131" y="241.3751">language</text><line style="stroke:#181818;stroke-width:0.5;" x1="1033.57" x2="1239.0368" y1="249.6769" y2="249.6769"/><text fill="#000000" font-family="sans-serif" font-size="14" lengthAdjust="spacing" textLength="195.4668" x="1038.57" y="266.672">language_id: CHAR(36) [PK]</text><line style="stroke:#181818;stroke-width:1.0;" x1="1033.57" x2="1239.0368" y1="273.9738" y2="273.9738"/><text fill="#000000" font-family="sans-serif" font-size="14" lengthAdjust="spacing" textLength="170.5977" x="1038.57" y="290.9689">name: TEXT [NOT NULL]</text></g><!--link user_role to user--><g id="link_user_role_user"><path codeLine="61" d="M298.9,114.86 C298.9,137.49 298.9,159.25 298.9,184.47 " fill="none" id="user_role-to-user" style="stroke:#181818;stroke-width:1.0;"/><polygon fill="#181818" points="298.9,190.47,302.9,181.47,298.9,185.47,294.9,181.47,298.9,190.47" style="stroke:#181818;stroke-width:1.0;"/><text fill="#000000" font-family="sans-serif" font-size="13" lengthAdjust="spacing" textLength="46.7188" x="251.9" y="148.7369">user_id</text></g><!--link user_role to role--><g id="link_user_role_role"><path codeLine="62" d="M139.59,114.86 C139.59,147.91 139.59,185.93 139.59,216.96 " fill="none" id="user_role-to-role" style="stroke:#181818;stroke-width:1.0;"/><polygon fill="#181818" points="139.59,222.96,143.59,213.96,139.59,217.96,135.59,213.96,139.59,222.96" style="stroke:#181818;stroke-width:1.0;"/><text fill="#000000" font-family="sans-serif" font-size="13" lengthAdjust="spacing" textLength="43.272" x="95.59" y="164.9769">role_id</text></g><!--link solved_problem to user--><g id="link_solved_problem_user"><path codeLine="63" d="M717.81,131.24 C717.81,164.62 717.81,198.93 717.81,198.93 C717.81,198.93 607.51,198.93 508.14,198.93 " fill="none" id="solved_problem-to-user" style="stroke:#181818;stroke-width:1.0;"/><polygon fill="#181818" points="502.14,198.93,511.14,202.93,507.14,198.93,511.14,194.93,502.14,198.93" style="stroke:#181818;stroke-width:1.0;"/><text fill="#000000" font-family="sans-serif" font-size="13" lengthAdjust="spacing" textLength="46.7188" x="596.82" y="194.9969">user_id</text></g><!--link solved_problem to problem--><g id="link_solved_problem_problem"><path codeLine="64" d="M887.3,131.21 C887.3,155.61 887.3,177.35 887.3,200.88 " fill="none" id="solved_problem-to-problem" style="stroke:#181818;stroke-width:1.0;"/><polygon fill="#181818" points="887.3,206.88,891.3,197.88,887.3,201.88,883.3,197.88,887.3,206.88" style="stroke:#181818;stroke-width:1.0;"/><text fill="#000000" font-family="sans-serif" font-size="13" lengthAdjust="spacing" textLength="72.4395" x="814.3" y="165.1069">problem_id</text></g><!--link solved_problem to language--><g id="link_solved_problem_language"><path codeLine="65" d="M1056.77,131.21 C1056.77,161.53 1056.77,190.98 1056.77,217.13 " fill="none" id="solved_problem-to-language" style="stroke:#181818;stroke-width:1.0;"/><polygon fill="#181818" points="1056.77,223.13,1060.77,214.13,1056.77,218.13,1052.77,214.13,1056.77,223.13" style="stroke:#181818;stroke-width:1.0;"/><text fill="#000000" font-family="sans-serif" font-size="13" lengthAdjust="spacing" textLength="78.8887" x="977.77" y="173.2369">language_id</text></g><!--SRC=[hPHVIyCm5CNV-oakUr71rGV1Xp868egYp3zi88nIiZPTBsPDIL9b3B-xIPfsMqd51w4Fj_USDYU_tFO4KbxckAu5KSZBeC2CGeeYPJIG7rXMH90DC2ofsbOKk5053u8Jg2KLeCXAssYfK6rXP5eZ8BBHTW7O8i4iWflxwxVJowipMBuynbeOZvrQaWsDO7xxFeVbx7aEiyNJqpaiPW-lYrjZf1k2x3T3HQJyuYBhUuoMev0gsI-XMumSTxw3aYiA0jU50fxRJC5aDPtfRZIvM4rXNg04VQc27cmwrBlEm3nhO0ZEQ0-6QLaOLZCmJ34CmmSYrl4SwiIpHDVle2VTOjtTx_XxwjqZZATM29qQ-uCtHYE4JdLPAy5rn4qlgUlQdAt3f7JrS4RzEAE-eyseJ0LMPcIzCkOvfZLJsm6cahDFcYN-kCUYJTtpc_37hN_Wx7zJutLQkFV4TfhBTKtM_jDfnV305JUvQpytIwPrzvYqRKkZy-o6G_njjWLbzhyZ2wnai9_XiUC3aPjpp4OzsHPHywLPkNT6tbTuF6qTTNCwvEos7Urv6EyF]--></g></svg>